<svg width="14" height="14" viewBox="0 0 14 14" fill="none" xmlns="http://www.w3.org/2000/svg">
<path fill-rule="evenodd" clip-rule="evenodd" d="M7.00001 0.908386C6.07677 0.908386 5.40327 1.46421 4.82705 2.18826C4.26344 2.89646 3.66367 3.93248 2.92194 5.2137L2.88924 5.2702L2.49369 5.9534L2.46095 6.00996C1.7164 7.29594 1.11451 8.33553 0.779952 9.17947C0.438039 10.042 0.29094 10.9052 0.753183 11.7069C1.21543 12.5086 2.03616 12.8138 2.9539 12.9501C3.85189 13.0834 5.05315 13.0834 6.5391 13.0833H6.53913H6.60447H7.39556H7.46091H7.46093C8.94689 13.0834 10.1481 13.0834 11.0461 12.9501C11.9639 12.8138 12.7846 12.5086 13.2468 11.7069C13.7091 10.9052 13.562 10.042 13.2201 9.17947C12.8855 8.33553 12.2836 7.29593 11.5391 6.00994L11.5063 5.9534L11.1108 5.27019L11.0781 5.2137C10.3364 3.93247 9.73658 2.89646 9.17297 2.18825C8.59676 1.46421 7.92325 0.908386 7.00001 0.908386ZM7.75001 5.00001C7.75001 4.5858 7.41422 4.25001 7.00001 4.25001C6.58579 4.25001 6.25001 4.5858 6.25001 5.00001V7.66668C6.25001 8.08089 6.58579 8.41668 7.00001 8.41668C7.41422 8.41668 7.75001 8.08089 7.75001 7.66668V5.00001ZM7.66668 9.66668C7.66668 10.0349 7.3682 10.3333 7.00001 10.3333C6.63182 10.3333 6.33335 10.0349 6.33335 9.66668C6.33335 9.29849 6.63182 9.00001 7.00001 9.00001C7.3682 9.00001 7.66668 9.29849 7.66668 9.66668Z" fill="#212934"/>
</svg>
