<svg width="14" height="14" viewBox="0 0 14 14" fill="none" xmlns="http://www.w3.org/2000/svg">
<path fill-rule="evenodd" clip-rule="evenodd" d="M4.26493 0.0961456C4.06602 0.0961456 3.87526 0.175163 3.7346 0.315816L0.3158 3.73462C0.175148 3.87527 0.0961304 4.06604 0.0961304 4.26495V9.73503C0.0961304 9.93395 0.175148 10.1247 0.3158 10.2654L3.7346 13.6842C3.87526 13.8248 4.06602 13.9038 4.26493 13.9038H9.73502C9.93393 13.9038 10.1247 13.8248 10.2653 13.6842L13.6842 10.2654C13.8248 10.1247 13.9038 9.93395 13.9038 9.73503V4.26495C13.9038 4.06604 13.8248 3.87527 13.6842 3.73462L10.2653 0.315816C10.1247 0.175163 9.93393 0.0961456 9.73502 0.0961456H4.26493ZM7.74998 4.26495C7.74998 3.85073 7.41419 3.51495 6.99998 3.51495C6.58577 3.51495 6.24998 3.85073 6.24998 4.26495V7.68375C6.24998 8.09796 6.58577 8.43375 6.99998 8.43375C7.41419 8.43375 7.74998 8.09796 7.74998 7.68375V4.26495ZM7.68374 9.73503C7.68374 10.1127 7.37761 10.4188 6.99998 10.4188C6.62235 10.4188 6.31622 10.1127 6.31622 9.73503C6.31622 9.3574 6.62235 9.05127 6.99998 9.05127C7.37761 9.05127 7.68374 9.3574 7.68374 9.73503Z" fill="white"/>
</svg>
