<svg width="16" height="16" viewBox="0 0 16 16" fill="none" xmlns="http://www.w3.org/2000/svg">
<path fill-rule="evenodd" clip-rule="evenodd" d="M14.6666 7.99998C14.6666 11.6819 11.6819 14.6666 7.99998 14.6666C4.31808 14.6666 1.33331 11.6819 1.33331 7.99998C1.33331 4.31808 4.31808 1.33331 7.99998 1.33331C11.6819 1.33331 14.6666 4.31808 14.6666 7.99998ZM7.99998 6.58331C8.41419 6.58331 8.74998 6.9191 8.74998 7.33331V10.6666C8.74998 11.0809 8.41419 11.4166 7.99998 11.4166C7.58577 11.4166 7.24998 11.0809 7.24998 10.6666V7.33331C7.24998 6.9191 7.58577 6.58331 7.99998 6.58331ZM7.99998 5.99998C8.36817 5.99998 8.66665 5.7015 8.66665 5.33331C8.66665 4.96512 8.36817 4.66665 7.99998 4.66665C7.63179 4.66665 7.33331 4.96512 7.33331 5.33331C7.33331 5.7015 7.63179 5.99998 7.99998 5.99998Z" fill="#0D7FE9"/>
</svg>
