<svg width="16" height="16" viewBox="0 0 16 16" fill="none" xmlns="http://www.w3.org/2000/svg">
<path fill-rule="evenodd" clip-rule="evenodd" d="M14.6666 8C14.6666 11.6819 11.6819 14.6667 7.99998 14.6667C4.31808 14.6667 1.33331 11.6819 1.33331 8C1.33331 4.3181 4.31808 1.33334 7.99998 1.33334C11.6819 1.33334 14.6666 4.3181 14.6666 8ZM7.99998 6.58334C8.41419 6.58334 8.74998 6.91912 8.74998 7.33334V10.6667C8.74998 11.0809 8.41419 11.4167 7.99998 11.4167C7.58577 11.4167 7.24998 11.0809 7.24998 10.6667V7.33334C7.24998 6.91912 7.58577 6.58334 7.99998 6.58334ZM7.99998 6C8.36817 6 8.66665 5.70153 8.66665 5.33334C8.66665 4.96515 8.36817 4.66667 7.99998 4.66667C7.63179 4.66667 7.33331 4.96515 7.33331 5.33334C7.33331 5.70153 7.63179 6 7.99998 6Z" fill="white"/>
</svg>
