<svg width="14" height="14" viewBox="0 0 14 14" fill="none" xmlns="http://www.w3.org/2000/svg">
<path fill-rule="evenodd" clip-rule="evenodd" d="M6.99998 13.6667C10.6819 13.6667 13.6666 10.6819 13.6666 7.00001C13.6666 3.31811 10.6819 0.333344 6.99998 0.333344C3.31808 0.333344 0.333313 3.31811 0.333313 7.00001C0.333313 10.6819 3.31808 13.6667 6.99998 13.6667ZM10.197 5.53034C10.4899 5.23745 10.4899 4.76257 10.197 4.46968C9.90408 4.17679 9.42921 4.17679 9.13632 4.46968L6.33331 7.27268L5.53031 6.46968C5.23742 6.17679 4.76254 6.17679 4.46965 6.46968C4.17676 6.76257 4.17676 7.23745 4.46965 7.53034L5.80298 8.86367C6.09588 9.15657 6.57075 9.15657 6.86364 8.86367L10.197 5.53034Z" fill="white"/>
</svg>
